<?xml version="1.0" encoding="utf-8"?>
<!-- Generator: Adobe Illustrator 16.0.4, SVG Export Plug-In . SVG Version: 6.00 Build 0)  -->
<!DOCTYPE svg PUBLIC "-//W3C//DTD SVG 1.1//EN" "http://www.w3.org/Graphics/SVG/1.1/DTD/svg11.dtd">
<svg version="1.1" id="Layer_1" xmlns="http://www.w3.org/2000/svg" xmlns:xlink="http://www.w3.org/1999/xlink" x="0px" y="0px"
	 width="288px" height="288px" viewBox="0 0 288 288" enable-background="new 0 0 288 288" xml:space="preserve">
<g>
	<g>
		<g>
			<rect fill="none" width="288" height="288"/>
		</g>
	</g>
	<g>
		<g>
			<path fill="#55707D" d="M1.056,143.998c0,78.964,63.996,142.961,142.947,142.961c78.944,0.004,142.945-63.992,142.938-142.955
				c0.008-78.946-64-142.947-142.938-142.95C65.043,1.057,1.056,65.058,1.056,143.998z"/>
			<path fill="#FFFFFF" d="M144.005,9.979C218.003,9.985,278.019,69.992,278.022,144c-0.01,74.015-60.013,134.028-134.021,134.037
				C69.988,278.035,9.978,218.008,9.976,144C9.976,69.984,69.983,9.985,144.005,9.979z"/>
		</g>
	</g>
	<path fill="#1EC7CA" d="M28.01,144c0,64.064,51.936,115.995,115.983,115.995c64.062,0,115.994-51.931,115.994-115.995
		c0-64.05-51.932-115.979-115.994-115.979C79.946,28.021,28.01,79.95,28.01,144z"/>
	<path fill="#FFFFFF" d="M244.739,161.518c-0.006,1.155-0.611,2.21-1.617,2.802l-30.346,17.521c-1.021,0.575-2.238,0.575-3.236,0
		l-12.981-7.493v0.004c-1.001-0.573-2.216-0.573-3.229,0l0.004-0.004l-47.711,27.557c-1.007,0.594-1.615,1.64-1.621,2.795v-0.002
		v14.987c-0.012,1.163-0.615,2.213-1.615,2.799L112.04,240.01c-1.001,0.573-2.216,0.573-3.232,0l-30.333-17.519
		c-1.005-0.582-1.607-1.632-1.624-2.801v-35.046c0.011-1.167,0.619-2.218,1.619-2.799l12.974-7.505
		c0.979-0.57,1.57-1.588,1.612-2.724v-55.223c-0.042-1.136-0.632-2.152-1.612-2.724h0.019l-12.999-7.498
		c-1.003-0.596-1.606-1.645-1.612-2.8l-0.012-35.044c0.012-1.157,0.614-2.209,1.619-2.804l30.338-17.515
		c1.006-0.571,2.215-0.571,3.235,0l30.351,17.52c1.008,0.599,1.61,1.646,1.618,2.803v15.002v-0.009
		c0.006,1.124,0.585,2.143,1.526,2.741l47.835,27.618c1.006,0.544,2.195,0.542,3.182-0.021l-0.002,0.012l12.998-7.503
		c1.016-0.577,2.227-0.577,3.236-0.003l30.346,17.519c1,0.58,1.609,1.629,1.617,2.798V161.518z M175.968,164.329
		c1.004-0.592,1.609-1.646,1.613-2.803v-35.03c-0.004-1.161-0.609-2.206-1.613-2.8l-30.355-17.521c-1.015-0.577-2.227-0.577-3.235,0
		L112.04,123.69c-1.001,0.592-1.614,1.641-1.614,2.8v35.038c0.011,1.161,0.619,2.209,1.623,2.805l30.334,17.508
		c1.019,0.575,2.232,0.575,3.235,0L175.968,164.329z"/>
</g>
</svg>
